<svg width="172" height="154" viewBox="0 0 172 154" fill="none" xmlns="http://www.w3.org/2000/svg">
<path d="M112.663 119.384L93.5905 118.616C92.7372 118.531 91.8838 118.488 91.0305 118.488C90.2625 118.488 89.4945 118.488 88.7265 118.488C85.3985 118.488 82.0278 118.573 78.6145 118.744C75.2865 118.915 71.8732 119 68.3745 119C67.9478 119 67.5638 118.829 67.2225 118.488C66.8812 118.147 66.7105 117.805 66.7105 117.464C66.7105 117.037 67.0092 116.824 67.6065 116.824C69.0572 116.909 70.4225 116.995 71.7025 117.08C72.9825 117.08 74.2198 117.08 75.4145 117.08C78.8278 117.08 81.8998 116.568 84.6305 115.544C87.3612 114.435 89.9638 111.917 92.4385 107.992C93.7185 105.944 95.3398 103.171 97.3025 99.672C99.3505 96.1733 101.441 92.4187 103.575 88.408C102.209 88.3227 100.972 88.28 99.8625 88.28C98.7532 88.28 97.6438 88.28 96.5345 88.28C92.8652 88.28 90.1345 88.3653 88.3425 88.536C86.5505 88.7067 85.3132 88.792 84.6305 88.792C83.7772 88.792 83.3505 88.5787 83.3505 88.152C83.3505 87.8107 83.9052 87.3413 85.0145 86.744C86.2092 86.0613 87.1052 85.6773 87.7025 85.592C90.0065 85.1653 92.6945 84.8667 95.7665 84.696C98.8385 84.5253 102.209 84.3547 105.879 84.184C108.268 79.6613 110.572 75.224 112.791 70.872C115.095 66.4347 117.1 62.4667 118.807 58.968C120.513 55.4693 121.708 52.9093 122.391 51.288C122.817 50.3493 123.159 49.368 123.415 48.344C123.671 47.2347 123.799 46.2533 123.799 45.4C123.799 43.7787 123.287 42.456 122.263 41.432C121.324 40.3227 119.532 39.7253 116.887 39.64C115.265 39.64 113.644 39.7253 112.023 39.896C110.401 39.9813 108.78 40.024 107.159 40.024H106.903C106.305 40.024 106.007 39.64 106.007 38.872C106.007 38.616 106.092 38.36 106.263 38.104C106.433 37.848 106.689 37.7627 107.031 37.848C110.444 38.0187 113.431 38.1467 115.991 38.232C118.636 38.3173 120.897 38.36 122.775 38.36C124.14 38.36 125.335 38.36 126.359 38.36C127.383 38.2747 128.236 38.232 128.919 38.232C130.881 38.1467 132.801 38.104 134.679 38.104C136.641 38.104 138.604 38.0613 140.567 37.976C141.591 37.976 142.103 38.5733 142.103 39.768C142.103 40.8773 142.231 42.3707 142.487 44.248C144.023 54.232 145.601 63.9173 147.223 73.304C148.929 82.6907 151.02 92.2907 153.495 102.104C154.689 106.541 156.055 109.827 157.591 111.96C159.127 114.093 160.748 115.501 162.455 116.184C164.161 116.781 165.74 117.08 167.191 117.08C167.873 117.08 168.513 117.037 169.111 116.952C169.708 116.867 170.177 116.824 170.519 116.824C171.031 116.824 171.287 117.123 171.287 117.72C171.287 117.976 171.159 118.275 170.903 118.616C170.732 118.872 170.476 119 170.135 119C169.281 119 167.873 119 165.911 119C163.948 118.915 161.9 118.872 159.767 118.872C157.719 118.787 156.14 118.744 155.031 118.744H142.231C139.671 118.744 137.665 118.787 136.215 118.872C134.849 118.872 133.825 118.915 133.143 119C132.46 119 131.777 119 131.095 119C130.753 119 130.327 118.829 129.815 118.488C129.388 118.147 129.175 117.805 129.175 117.464C129.175 117.123 129.388 116.952 129.815 116.952C130.241 116.952 130.753 116.995 131.351 117.08C132.033 117.08 132.673 117.08 133.271 117.08C136.684 117.08 138.988 116.525 140.183 115.416C141.377 114.307 141.889 113.069 141.719 111.704C141.548 109.485 141.121 106.371 140.439 102.36C139.756 98.264 138.945 93.7413 138.007 88.792C137.068 83.8427 136.087 78.936 135.062 74.072C134.124 69.208 133.228 64.8133 132.375 60.888C131.521 56.9627 130.796 54.0187 130.199 52.056C127.212 57.432 124.268 62.7653 121.367 68.056C118.465 73.2613 115.649 78.5093 112.919 83.8L120.215 83.416C122.263 83.3307 124.396 83.16 126.615 82.904C128.833 82.5627 130.796 82.1787 132.503 81.752C134.209 81.3253 135.276 80.9413 135.702 80.6C135.873 80.4293 136.044 80.344 136.215 80.344C136.471 80.344 136.471 80.6853 136.215 81.368C135.617 82.648 134.508 83.8853 132.887 85.08C131.265 86.1893 129.9 87 128.791 87.512C127.255 88.28 125.633 88.664 123.927 88.664C122.305 88.664 120.641 88.664 118.935 88.664C117.313 88.664 115.82 88.664 114.455 88.664C113.089 88.5787 111.809 88.536 110.615 88.536C109.505 90.7547 108.396 93.016 107.287 95.32C106.177 97.5387 105.111 99.8 104.087 102.104C102.38 105.859 101.527 108.888 101.527 111.192C101.527 113.837 102.423 115.544 104.215 116.312C106.092 116.995 108.055 117.336 110.103 117.336C110.785 117.336 111.468 117.336 112.151 117.336C112.833 117.251 113.473 117.208 114.071 117.208H114.455C114.711 117.208 114.839 117.293 114.839 117.464C114.839 117.805 114.583 118.232 114.071 118.744C113.559 119.256 113.089 119.469 112.663 119.384Z" fill="#C357D9"/>
<path fill-rule="evenodd" clip-rule="evenodd" d="M46 49C33.7318 49 26.0682 55.1096 23 67.3333C27.6 61.2238 32.9682 58.9321 39.1 60.4583C42.6006 61.3298 45.103 63.8613 47.8676 66.6601C52.3802 71.2204 57.6012 76.5 69 76.5C81.2682 76.5 88.9318 70.3904 92 58.1667C87.4 64.2762 82.0364 66.5679 75.9 65.0417C72.3994 64.1702 69.897 61.6387 67.1278 58.8399C62.6198 54.275 57.4034 49 46 49ZM23 76.5C10.7318 76.5 3.0682 82.6096 0 94.8333C4.6 88.7191 9.9682 86.4321 16.1 87.9583C19.6006 88.8298 22.103 91.3612 24.8722 94.1601C29.3802 98.7204 34.6012 104 46.0046 104C58.2728 104 65.9364 97.8904 69.0046 85.6667C64.4046 91.7762 59.0364 94.0679 52.9046 92.5417C49.404 91.6702 46.9016 89.1387 44.137 86.3399C39.6198 81.7796 34.3988 76.5 23 76.5Z" fill="#C357D9"/>
</svg>
