<svg width="328" height="154" viewBox="0 0 328 154" fill="none" xmlns="http://www.w3.org/2000/svg">
<path d="M111.69 119.384L92.618 118.616C91.7647 118.531 90.9113 118.488 90.058 118.488C89.29 118.488 88.522 118.488 87.754 118.488C84.426 118.488 81.0553 118.573 77.642 118.744C74.314 118.915 70.9007 119 67.402 119C66.9753 119 66.5913 118.829 66.25 118.488C65.9087 118.147 65.738 117.805 65.738 117.464C65.738 117.037 66.0367 116.824 66.634 116.824C68.0847 116.909 69.45 116.995 70.73 117.08C72.01 117.08 73.2473 117.08 74.442 117.08C77.8553 117.08 80.9273 116.568 83.658 115.544C86.3887 114.435 88.9913 111.917 91.466 107.992C92.746 105.944 94.3673 103.171 96.33 99.672C98.378 96.1733 100.469 92.4187 102.602 88.408C101.237 88.3227 99.9993 88.28 98.89 88.28C97.7807 88.28 96.6713 88.28 95.562 88.28C91.8927 88.28 89.162 88.3653 87.37 88.536C85.578 88.7067 84.3407 88.792 83.658 88.792C82.8047 88.792 82.378 88.5787 82.378 88.152C82.378 87.8107 82.9327 87.3413 84.042 86.744C85.2367 86.0613 86.1327 85.6773 86.73 85.592C89.034 85.1653 91.722 84.8667 94.794 84.696C97.866 84.5253 101.237 84.3547 104.906 84.184C107.295 79.6613 109.599 75.224 111.818 70.872C114.122 66.4347 116.127 62.4667 117.834 58.968C119.541 55.4693 120.735 52.9093 121.418 51.288C121.845 50.3493 122.186 49.368 122.442 48.344C122.698 47.2347 122.826 46.2533 122.826 45.4C122.826 43.7787 122.314 42.456 121.29 41.432C120.351 40.3227 118.559 39.7253 115.914 39.64C114.293 39.64 112.671 39.7253 111.05 39.896C109.429 39.9813 107.807 40.024 106.186 40.024H105.93C105.333 40.024 105.034 39.64 105.034 38.872C105.034 38.616 105.119 38.36 105.29 38.104C105.461 37.848 105.717 37.7627 106.058 37.848C109.471 38.0187 112.458 38.1467 115.018 38.232C117.663 38.3173 119.925 38.36 121.802 38.36C123.167 38.36 124.362 38.36 125.386 38.36C126.41 38.2747 127.263 38.232 127.946 38.232C129.909 38.1467 131.829 38.104 133.706 38.104C135.669 38.104 137.631 38.0613 139.594 37.976C140.618 37.976 141.13 38.5733 141.13 39.768C141.13 40.8773 141.258 42.3707 141.514 44.248C143.05 54.232 144.629 63.9173 146.25 73.304C147.957 82.6907 150.047 92.2907 152.522 102.104C153.717 106.541 155.082 109.827 156.618 111.96C158.154 114.093 159.775 115.501 161.482 116.184C163.189 116.781 164.767 117.08 166.218 117.08C166.901 117.08 167.541 117.037 168.138 116.952C168.735 116.867 169.205 116.824 169.546 116.824C170.058 116.824 170.314 117.123 170.314 117.72C170.314 117.976 170.186 118.275 169.93 118.616C169.759 118.872 169.503 119 169.162 119C168.309 119 166.901 119 164.938 119C162.975 118.915 160.927 118.872 158.794 118.872C156.746 118.787 155.167 118.744 154.058 118.744H141.258C138.698 118.744 136.693 118.787 135.242 118.872C133.877 118.872 132.853 118.915 132.17 119C131.487 119 130.805 119 130.122 119C129.781 119 129.354 118.829 128.842 118.488C128.415 118.147 128.202 117.805 128.202 117.464C128.202 117.123 128.415 116.952 128.842 116.952C129.269 116.952 129.781 116.995 130.378 117.08C131.061 117.08 131.701 117.08 132.298 117.08C135.711 117.08 138.015 116.525 139.21 115.416C140.405 114.307 140.917 113.069 140.746 111.704C140.575 109.485 140.149 106.371 139.466 102.36C138.783 98.264 137.973 93.7413 137.034 88.792C136.095 83.8427 135.114 78.936 134.09 74.072C133.151 69.208 132.255 64.8133 131.402 60.888C130.549 56.9627 129.823 54.0187 129.226 52.056C126.239 57.432 123.295 62.7653 120.394 68.056C117.493 73.2613 114.677 78.5093 111.946 83.8L119.242 83.416C121.29 83.3307 123.423 83.16 125.642 82.904C127.861 82.5627 129.823 82.1787 131.53 81.752C133.237 81.3253 134.303 80.9413 134.73 80.6C134.901 80.4293 135.071 80.344 135.242 80.344C135.498 80.344 135.498 80.6853 135.242 81.368C134.645 82.648 133.535 83.8853 131.914 85.08C130.293 86.1893 128.927 87 127.818 87.512C126.282 88.28 124.661 88.664 122.954 88.664C121.333 88.664 119.669 88.664 117.962 88.664C116.341 88.664 114.847 88.664 113.482 88.664C112.117 88.5787 110.837 88.536 109.642 88.536C108.533 90.7547 107.423 93.016 106.314 95.32C105.205 97.5387 104.138 99.8 103.114 102.104C101.407 105.859 100.554 108.888 100.554 111.192C100.554 113.837 101.45 115.544 103.242 116.312C105.119 116.995 107.082 117.336 109.13 117.336C109.813 117.336 110.495 117.336 111.178 117.336C111.861 117.251 112.501 117.208 113.098 117.208H113.482C113.738 117.208 113.866 117.293 113.866 117.464C113.866 117.805 113.61 118.232 113.098 118.744C112.586 119.256 112.117 119.469 111.69 119.384ZM182.507 50.776C182.934 50.3493 183.275 49.8373 183.531 49.24C183.872 48.6427 184.086 48.2587 184.171 48.088C185.11 45.8693 186.176 44.0773 187.371 42.712C188.651 41.3467 190.187 40.6213 191.979 40.536C193.174 40.4507 194.283 40.408 195.307 40.408C196.416 40.3227 197.568 40.28 198.763 40.28C199.36 40.28 199.915 40.3227 200.427 40.408C201.024 40.408 201.579 40.408 202.091 40.408C202.432 40.408 202.603 40.536 202.603 40.792C202.603 41.4747 202.091 42.0293 201.067 42.456C200.47 42.5413 199.83 43.1813 199.147 44.376C198.464 45.4853 197.739 46.6373 196.971 47.832C196.288 48.9413 195.648 49.624 195.051 49.88C194.539 50.136 194.027 50.3067 193.515 50.392C193.003 50.4773 192.491 50.52 191.979 50.52C191.296 50.52 190.528 50.4773 189.675 50.392C188.907 50.3067 188.182 50.264 187.499 50.264C187.243 50.264 186.731 50.264 185.963 50.264C185.28 50.264 184.768 50.3493 184.427 50.52C184.086 50.6907 183.574 50.904 182.891 51.16C182.294 51.416 182.166 51.288 182.507 50.776ZM165.099 119.128C164.416 119.128 163.691 119.085 162.923 119C162.155 119 161.302 119 160.363 119H160.235C159.979 119 159.851 118.872 159.851 118.616C159.851 118.275 160.107 117.891 160.619 117.464C161.046 116.952 161.43 116.696 161.771 116.696C162.88 116.696 163.862 116.739 164.715 116.824C165.568 116.824 166.379 116.824 167.147 116.824C169.28 116.824 170.944 116.525 172.139 115.928C173.334 115.245 174.358 113.795 175.211 111.576C176.064 109.272 176.96 105.731 177.899 100.952C178.411 98.392 178.88 95.6187 179.307 92.632C179.734 89.56 180.118 86.616 180.459 83.8C180.8 80.8987 181.056 78.3387 181.227 76.12C181.398 73.9013 181.526 72.28 181.611 71.256C181.867 68.5253 181.483 66.5627 180.459 65.368C179.435 64.1733 177.984 63.4053 176.107 63.064C174.315 62.7227 172.224 62.552 169.835 62.552H165.867C164.758 62.552 164.203 62.3387 164.203 61.912C164.203 61.4853 164.416 61.144 164.843 60.888C165.355 60.5467 165.824 60.376 166.251 60.376L174.315 60.504C177.216 60.5893 180.032 60.6747 182.763 60.76C185.494 60.76 188.011 60.76 190.315 60.76C191.254 60.76 192.192 60.76 193.131 60.76C194.07 60.6747 194.88 60.632 195.563 60.632H195.691C196.459 60.632 196.843 61.016 196.843 61.784C196.843 62.04 196.8 62.3387 196.715 62.68C196.715 62.936 196.672 63.2347 196.587 63.576C195.563 69.0373 194.496 75.0107 193.387 81.496C192.363 87.9813 191.51 93.9973 190.827 99.544C190.742 100.568 190.571 101.933 190.315 103.64C190.144 105.261 189.974 106.797 189.803 108.248C189.718 109.613 189.675 110.509 189.675 110.936C189.675 112.643 190.144 113.923 191.083 114.776C192.022 115.544 192.918 116.013 193.771 116.184C194.71 116.355 195.904 116.483 197.355 116.568C198.806 116.653 200.171 116.739 201.451 116.824C202.816 116.824 203.84 116.824 204.523 116.824H204.651C205.078 116.824 205.291 116.995 205.291 117.336C205.291 117.677 205.078 118.061 204.651 118.488C204.224 118.829 203.755 119 203.243 119C199.659 119 196.16 118.915 192.747 118.744C189.334 118.573 185.878 118.488 182.379 118.488C181.526 118.488 180.63 118.488 179.691 118.488C178.838 118.488 177.942 118.531 177.003 118.616C175.296 118.701 173.59 118.829 171.883 119C170.176 119.085 167.915 119.128 165.099 119.128ZM203.414 119.128C202.731 119.128 202.006 119.085 201.238 119C200.47 119 199.617 119 198.678 119H198.55C198.294 119 198.166 118.872 198.166 118.616C198.166 118.275 198.379 117.891 198.806 117.464C199.233 116.952 199.617 116.696 199.958 116.696C201.067 116.696 202.049 116.739 202.902 116.824C203.841 116.824 204.651 116.824 205.334 116.824C207.467 116.824 209.131 116.525 210.326 115.928C211.521 115.245 212.545 113.795 213.398 111.576C214.337 109.272 215.275 105.731 216.214 100.952C216.897 97.7093 217.409 94.2533 217.75 90.584C218.177 86.8293 218.518 83.2027 218.774 79.704C219.03 76.2053 219.201 73.2187 219.286 70.744C219.286 69.8907 219.201 68.9093 219.03 67.8C218.945 66.6053 218.561 65.5387 217.878 64.6C217.281 63.576 216.214 63.0213 214.678 62.936C213.142 62.7653 211.179 62.68 208.79 62.68C206.401 62.68 204.523 62.68 203.158 62.68C202.646 62.68 202.39 62.4667 202.39 62.04C202.39 61.6987 202.518 61.3573 202.774 61.016C203.115 60.6747 203.542 60.504 204.054 60.504C207.979 60.504 211.862 60.4613 215.702 60.376C219.627 60.2053 223.553 60.12 227.478 60.12C228.673 60.12 229.867 60.12 231.062 60.12C232.257 60.12 233.409 60.1627 234.518 60.248C235.457 60.248 235.926 60.4187 235.926 60.76C235.926 60.9307 235.883 61.144 235.798 61.4C235.713 61.5707 235.627 61.8267 235.542 62.168C235.371 63.0213 235.073 64.3867 234.646 66.264C234.219 68.056 233.793 70.0187 233.366 72.152C232.939 74.2 232.555 76.12 232.214 77.912C231.873 79.704 231.617 81.0267 231.446 81.88C230.593 87.8533 229.782 93.3573 229.014 98.392C228.331 103.341 227.99 107.437 227.99 110.68C227.99 113.155 228.374 114.392 229.142 114.392C229.569 114.392 229.867 114.051 230.038 113.368C230.635 111.064 231.19 108.163 231.702 104.664C232.299 101.08 232.939 97.24 233.622 93.144C234.305 89.048 235.115 84.9947 236.054 80.984C237.078 76.888 238.273 73.176 239.638 69.848C241.089 66.4347 242.838 63.7467 244.886 61.784C247.019 59.736 249.537 58.712 252.438 58.712C254.145 58.712 255.638 58.8827 256.918 59.224C258.283 59.48 259.606 59.608 260.886 59.608C262.081 59.608 263.105 59.48 263.958 59.224C264.897 58.968 265.537 58.712 265.878 58.456C266.134 58.2 266.347 58.072 266.518 58.072C266.603 58.072 266.646 58.2 266.646 58.456C266.646 58.8827 266.561 59.224 266.39 59.48C265.963 60.504 265.11 61.912 263.83 63.704C262.635 65.496 261.355 67.16 259.99 68.696C258.625 70.1467 257.515 71.0427 256.662 71.384C255.809 71.7253 254.913 71.9813 253.974 72.152C253.035 72.3227 252.097 72.408 251.158 72.408C250.219 72.408 249.238 72.3653 248.214 72.28C247.275 72.1093 246.294 71.9813 245.27 71.896C243.649 71.64 242.241 72.408 241.046 74.2C239.937 75.9067 238.955 78.2533 238.102 81.24C237.249 84.2267 236.481 87.4693 235.798 90.968C235.201 94.4667 234.646 97.9227 234.134 101.336C233.707 104.749 233.238 107.779 232.726 110.424C232.299 113.069 231.787 114.947 231.19 116.056C232.129 116.227 233.366 116.397 234.902 116.568C236.523 116.653 238.059 116.739 239.51 116.824C241.046 116.824 242.155 116.824 242.838 116.824H242.966C243.393 116.824 243.606 116.995 243.606 117.336C243.606 117.677 243.393 118.061 242.966 118.488C242.539 118.829 242.07 119 241.558 119C237.974 119 234.433 118.915 230.934 118.744C227.521 118.573 224.065 118.488 220.566 118.488C219.713 118.488 218.817 118.488 217.878 118.488C217.025 118.488 216.129 118.531 215.19 118.616C213.569 118.701 211.905 118.829 210.198 119C208.491 119.085 206.23 119.128 203.414 119.128ZM270.216 119.768C268.595 119.768 267.229 119.256 266.12 118.232C265.096 117.208 264.243 116.013 263.56 114.648C262.963 113.197 262.536 111.789 262.28 110.424C262.024 108.973 261.896 107.864 261.896 107.096C261.896 103.341 262.707 100.184 264.328 97.624C266.035 95.064 268.211 93.016 270.856 91.48C273.587 89.8587 276.531 88.664 279.688 87.896C282.931 87.0427 286.131 86.488 289.288 86.232C292.531 85.8907 295.389 85.7627 297.864 85.848C297.864 85.848 297.949 85.0373 298.12 83.416C298.376 81.7947 298.547 80.3867 298.632 79.192C298.717 77.656 298.675 75.9493 298.504 74.072C298.333 72.1947 297.821 70.5733 296.968 69.208C296.797 68.952 296.499 68.5253 296.072 67.928C295.645 67.2453 295.731 66.776 296.328 66.52C296.413 66.4347 296.584 66.392 296.84 66.392C297.352 66.392 297.907 66.8613 298.504 67.8C299.187 68.7387 299.613 69.9333 299.784 71.384C300.04 72.8347 300.168 74.3707 300.168 75.992C300.168 76.5893 300.168 77.144 300.168 77.656C300.168 78.168 300.125 78.7227 300.04 79.32C299.955 80.6853 299.784 82.136 299.528 83.672C299.357 85.1227 299.272 85.848 299.272 85.848C299.443 85.9333 299.656 85.976 299.912 85.976C300.936 85.976 301.491 85.5493 301.576 84.696C301.747 83.5013 301.917 81.88 302.088 79.832C302.344 77.6987 302.472 75.5227 302.472 73.304C302.472 70.1467 302.045 67.3307 301.192 64.856C300.424 62.296 298.76 61.016 296.2 61.016C294.579 61.016 293.043 61.4 291.592 62.168C290.141 62.8507 288.904 63.6613 287.88 64.6C286.344 66.0507 285.235 67.7573 284.552 69.72C283.955 71.5973 283.443 73.3893 283.016 75.096C282.675 76.8027 282.035 78.0827 281.096 78.936C279.987 80.0453 278.963 80.7707 278.024 81.112C277.171 81.4533 276.061 82.0507 274.696 82.904C274.269 83.16 273.629 83.5013 272.776 83.928C272.008 84.2693 271.283 84.44 270.6 84.44C270.003 84.44 269.491 84.184 269.064 83.672C268.637 83.16 268.509 82.2213 268.68 80.856C268.936 78.9787 269.192 76.9733 269.448 74.84C269.704 72.6213 270.003 71.2133 270.344 70.616C271.453 68.824 273.032 67.2453 275.08 65.88C277.213 64.5147 279.56 63.3627 282.12 62.424C284.68 61.4 287.197 60.632 289.672 60.12C292.147 59.608 294.323 59.3093 296.2 59.224C299.869 58.968 303.283 59.352 306.44 60.376C309.683 61.4 312.285 62.9787 314.248 65.112C316.211 67.2453 317.192 69.9333 317.192 73.176C317.192 74.2853 317.064 75.48 316.808 76.76C315.955 80.4293 315.229 84.1413 314.632 87.896C314.035 91.5653 313.565 95.2773 313.224 99.032C313.139 99.8853 312.968 101.165 312.712 102.872C312.541 104.579 312.456 106.328 312.456 108.12C312.456 110.083 312.712 111.875 313.224 113.496C313.736 115.117 314.717 116.056 316.168 116.312C317.107 116.483 318.301 116.611 319.752 116.696C321.203 116.781 322.568 116.824 323.848 116.824C325.213 116.824 326.237 116.824 326.92 116.824H327.048C327.475 116.824 327.688 116.995 327.688 117.336C327.688 117.677 327.475 118.061 327.048 118.488C326.621 118.829 326.152 119 325.64 119C322.653 119 319.667 118.957 316.68 118.872C313.693 118.787 310.707 118.744 307.72 118.744C306.269 118.744 304.776 118.787 303.24 118.872C301.789 118.957 300.296 119 298.76 119H297.48C296.456 119 295.944 118.744 295.944 118.232C295.944 117.976 295.987 117.635 296.072 117.208C296.243 116.696 296.413 116.099 296.584 115.416C297.096 113.539 297.608 111.235 298.12 108.504C298.632 105.773 299.101 103.043 299.528 100.312C300.04 97.496 300.424 95.064 300.68 93.016C300.936 90.8827 301.064 89.5173 301.064 88.92V88.664C301.064 88.0667 300.851 87.6827 300.424 87.512C299.997 87.3413 299.571 87.2133 299.144 87.128C298.717 90.7973 297.949 94.552 296.84 98.392C295.816 102.147 294.536 105.645 293 108.888C291.549 112.131 290.013 114.776 288.392 116.824C286.771 118.787 285.192 119.768 283.656 119.768H270.216ZM283.912 111.704C286.472 111.704 288.605 110.723 290.312 108.76C291.677 107.224 292.829 105.347 293.768 103.128C294.707 100.824 295.432 98.52 295.944 96.216C296.541 93.912 296.968 91.9067 297.224 90.2C297.565 88.4933 297.779 87.4267 297.864 87C297.352 86.9147 296.84 86.872 296.328 86.872C295.901 86.872 295.475 86.872 295.048 86.872C292.829 86.872 290.739 87.2133 288.776 87.896C286.899 88.4933 285.235 89.304 283.784 90.328C281.907 91.6933 280.285 93.6133 278.92 96.088C277.555 98.4773 276.872 100.952 276.872 103.512C276.872 105.048 277.171 106.456 277.768 107.736C278.365 109.101 279.219 110.125 280.328 110.808C281.437 111.405 282.632 111.704 283.912 111.704Z" fill="#C357D9"/>
<path fill-rule="evenodd" clip-rule="evenodd" d="M46 49C33.7318 49 26.0682 55.1096 23 67.3333C27.6 61.2238 32.9682 58.9321 39.1 60.4583C42.6006 61.3298 45.103 63.8613 47.8676 66.6601C52.3802 71.2204 57.6012 76.5 69 76.5C81.2682 76.5 88.9318 70.3904 92 58.1667C87.4 64.2762 82.0364 66.5679 75.9 65.0417C72.3994 64.1702 69.897 61.6387 67.1278 58.8399C62.6198 54.275 57.4034 49 46 49ZM23 76.5C10.7318 76.5 3.0682 82.6096 0 94.8333C4.6 88.7191 9.9682 86.4321 16.1 87.9583C19.6006 88.8298 22.103 91.3612 24.8722 94.1601C29.3802 98.7204 34.6012 104 46.0046 104C58.2728 104 65.9364 97.8904 69.0046 85.6667C64.4046 91.7762 59.0364 94.0679 52.9046 92.5417C49.404 91.6702 46.9016 89.1387 44.137 86.3399C39.6198 81.7796 34.3988 76.5 23 76.5Z" fill="#C357D9"/>
</svg>
